<svg xmlns="http://www.w3.org/2000/svg" version="1.1" xmlns:xlink="http://www.w3.org/1999/xlink" xmlns:svgjs="http://svgjs.com/svgjs" width="1920" height="1080" preserveAspectRatio="none" viewBox="0 0 1920 1080"><g mask="url(&quot;#SvgjsMask1018&quot;)" fill="none"><rect width="1920" height="1080" x="0" y="0" fill="rgba(101, 169, 203, 1)"></rect><path d="M1920 0L1663.07 0L1920 119.89z" fill="rgba(255, 255, 255, .1)"></path><path d="M1663.07 0L1920 119.89L1920 228.17000000000002L1060.78 0z" fill="rgba(255, 255, 255, .075)"></path><path d="M1060.78 0L1920 228.17000000000002L1920 295.67L1033.35 0z" fill="rgba(255, 255, 255, .05)"></path><path d="M1033.35 0L1920 295.67L1920 302.2L681.3299999999999 0z" fill="rgba(255, 255, 255, .025)"></path><path d="M0 1080L410.8 1080L0 858.54z" fill="rgba(0, 0, 0, .1)"></path><path d="M0 858.54L410.8 1080L412.05 1080L0 649.52z" fill="rgba(0, 0, 0, .075)"></path><path d="M0 649.52L412.05 1080L930.3399999999999 1080L0 369.25z" fill="rgba(0, 0, 0, .05)"></path><path d="M0 369.25L930.3399999999999 1080L1469.57 1080L0 333.40999999999997z" fill="rgba(0, 0, 0, .025)"></path></g><defs><mask id="SvgjsMask1018"><rect width="1920" height="1080" fill="#ffffff"></rect></mask></defs></svg>