<svg xmlns="http://www.w3.org/2000/svg" xmlns:xlink="http://www.w3.org/1999/xlink" width="375" viewBox="0 0 375 375" height="375" version="1.0"><defs><clipPath id="b"><path d="M 146 221 L 226 221 L 226 267.835938 L 146 267.835938 Z M 146 221"/></clipPath><clipPath id="c"><path d="M 69 4.585938 L 302 4.585938 L 302 237 L 69 237 Z M 69 4.585938"/></clipPath><clipPath id="d"><path d="M 68.789062 4.585938 L 186 4.585938 L 186 238 L 68.789062 238 Z M 68.789062 4.585938"/></clipPath><clipPath id="g"><path d="M 1 0.585938 L 117.761719 0.585938 L 117.761719 233 L 1 233 Z M 1 0.585938"/></clipPath><clipPath id="f"><path d="M0 0H118V234H0z"/></clipPath><clipPath id="h"><path d="M 150 221 L 230 221 L 230 267.835938 L 150 267.835938 Z M 150 221"/></clipPath><clipPath id="i"><path d="M 73 4.585938 L 306.539062 4.585938 L 306.539062 237 L 73 237 Z M 73 4.585938"/></clipPath><clipPath id="j"><path d="M 71 4.585938 L 191 4.585938 L 191 238 L 71 238 Z M 71 4.585938"/></clipPath><clipPath id="m"><path d="M 2 0.585938 L 119.320312 0.585938 L 119.320312 233 L 2 233 Z M 2 0.585938"/></clipPath><clipPath id="l"><path d="M0 0H120V234H0z"/></clipPath><mask id="e"><g filter="url(#a)"><path fill-opacity=".149" d="M-37.5 -37.5H412.5V412.5H-37.5z"/></g></mask><mask id="k"><g filter="url(#a)"><path fill-opacity=".149" d="M-37.5 -37.5H412.5V412.5H-37.5z"/></g></mask><filter x="0%" y="0%" width="100%" xlink:type="simple" xlink:actuate="onLoad" height="100%" id="a" xlink:show="other"><feColorMatrix values="0 0 0 0 1 0 0 0 0 1 0 0 0 0 1 0 0 0 1 0" color-interpolation-filters="sRGB"/></filter></defs><g clip-path="url(#b)"><path fill="#7E310B" d="M 146.277344 221.300781 L 185.6875 267.835938 L 225.09375 221.300781 Z M 146.277344 221.300781"/></g><g clip-path="url(#c)"><path fill="#764B36" d="M 302 120.660156 C 302 122.558594 301.953125 124.457031 301.859375 126.355469 C 301.765625 128.25 301.628906 130.144531 301.441406 132.035156 C 301.253906 133.925781 301.019531 135.8125 300.742188 137.691406 C 300.460938 139.570312 300.136719 141.441406 299.765625 143.304688 C 299.394531 145.164062 298.976562 147.019531 298.515625 148.863281 C 298.050781 150.703125 297.542969 152.535156 296.992188 154.351562 C 296.441406 156.171875 295.84375 157.972656 295.203125 159.761719 C 294.558594 161.550781 293.875 163.320312 293.148438 165.078125 C 292.417969 166.832031 291.648438 168.566406 290.832031 170.285156 C 290.019531 172.003906 289.164062 173.699219 288.265625 175.375 C 287.367188 177.050781 286.429688 178.703125 285.453125 180.332031 C 284.472656 181.960938 283.457031 183.566406 282.398438 185.144531 C 281.339844 186.722656 280.246094 188.277344 279.109375 189.800781 C 277.976562 191.328125 276.804688 192.824219 275.597656 194.292969 C 274.390625 195.761719 273.148438 197.199219 271.871094 198.605469 C 270.589844 200.015625 269.277344 201.390625 267.933594 202.734375 C 266.585938 204.078125 265.207031 205.386719 263.796875 206.660156 C 262.386719 207.9375 260.945312 209.175781 259.476562 210.382812 C 258.003906 211.585938 256.503906 212.757812 254.972656 213.886719 C 253.445312 215.019531 251.890625 216.113281 250.308594 217.167969 C 248.722656 218.222656 247.117188 219.238281 245.484375 220.214844 C 243.851562 221.191406 242.195312 222.128906 240.515625 223.023438 C 238.835938 223.917969 237.136719 224.773438 235.417969 225.585938 C 233.695312 226.398438 231.957031 227.167969 230.199219 227.894531 C 228.4375 228.621094 226.664062 229.304688 224.871094 229.945312 C 223.078125 230.585938 221.273438 231.179688 219.449219 231.730469 C 217.628906 232.28125 215.792969 232.789062 213.949219 233.25 C 212.101562 233.710938 210.246094 234.128906 208.378906 234.5 C 206.511719 234.871094 204.636719 235.195312 202.753906 235.472656 C 200.871094 235.753906 198.980469 235.984375 197.085938 236.171875 C 195.191406 236.355469 193.292969 236.496094 191.394531 236.589844 C 189.492188 236.683594 187.589844 236.730469 185.6875 236.730469 C 183.78125 236.730469 181.878906 236.683594 179.976562 236.589844 C 178.078125 236.496094 176.179688 236.355469 174.285156 236.171875 C 172.390625 235.984375 170.5 235.753906 168.617188 235.472656 C 166.734375 235.195312 164.859375 234.871094 162.992188 234.5 C 161.125 234.128906 159.269531 233.710938 157.421875 233.25 C 155.578125 232.789062 153.742188 232.28125 151.921875 231.730469 C 150.101562 231.179688 148.292969 230.585938 146.5 229.945312 C 144.707031 229.304688 142.933594 228.621094 141.175781 227.894531 C 139.414062 227.167969 137.675781 226.398438 135.953125 225.585938 C 134.234375 224.773438 132.535156 223.917969 130.855469 223.023438 C 129.175781 222.128906 127.519531 221.191406 125.886719 220.214844 C 124.253906 219.238281 122.648438 218.222656 121.066406 217.167969 C 119.480469 216.113281 117.925781 215.019531 116.398438 213.886719 C 114.867188 212.757812 113.367188 211.585938 111.894531 210.382812 C 110.425781 209.175781 108.984375 207.9375 107.574219 206.660156 C 106.164062 205.386719 104.785156 204.078125 103.4375 202.734375 C 102.09375 201.390625 100.78125 200.015625 99.5 198.605469 C 98.222656 197.199219 96.980469 195.761719 95.773438 194.292969 C 94.566406 192.824219 93.394531 191.328125 92.261719 189.800781 C 91.125 188.277344 90.03125 186.722656 88.972656 185.144531 C 87.914062 183.566406 86.898438 181.960938 85.917969 180.332031 C 84.941406 178.703125 84.003906 177.050781 83.105469 175.375 C 82.207031 173.699219 81.351562 172.003906 80.539062 170.285156 C 79.722656 168.566406 78.953125 166.832031 78.226562 165.078125 C 77.496094 163.320312 76.8125 161.550781 76.171875 159.761719 C 75.527344 157.972656 74.933594 156.171875 74.378906 154.351562 C 73.828125 152.535156 73.320312 150.703125 72.855469 148.863281 C 72.394531 147.019531 71.976562 145.164062 71.605469 143.304688 C 71.234375 141.441406 70.910156 139.570312 70.628906 137.691406 C 70.351562 135.8125 70.117188 133.925781 69.929688 132.035156 C 69.746094 130.144531 69.605469 128.25 69.511719 126.355469 C 69.417969 124.457031 69.371094 122.558594 69.371094 120.660156 C 69.371094 118.757812 69.417969 116.859375 69.511719 114.964844 C 69.605469 113.066406 69.746094 111.171875 69.929688 109.28125 C 70.117188 107.390625 70.351562 105.507812 70.628906 103.628906 C 70.910156 101.75 71.234375 99.878906 71.605469 98.015625 C 71.976562 96.152344 72.394531 94.296875 72.855469 92.457031 C 73.320312 90.613281 73.828125 88.78125 74.378906 86.964844 C 74.933594 85.148438 75.527344 83.34375 76.171875 81.554688 C 76.8125 79.765625 77.496094 77.996094 78.226562 76.238281 C 78.953125 74.484375 79.722656 72.75 80.539062 71.03125 C 81.351562 69.3125 82.207031 67.617188 83.105469 65.941406 C 84.003906 64.265625 84.941406 62.613281 85.917969 60.984375 C 86.898438 59.355469 87.914062 57.753906 88.972656 56.171875 C 90.03125 54.59375 91.125 53.039062 92.261719 51.515625 C 93.394531 49.988281 94.566406 48.492188 95.773438 47.023438 C 96.980469 45.554688 98.222656 44.117188 99.5 42.710938 C 100.78125 41.300781 102.09375 39.925781 103.4375 38.582031 C 104.785156 37.242188 106.164062 35.929688 107.574219 34.65625 C 108.984375 33.378906 110.425781 32.140625 111.894531 30.933594 C 113.367188 29.730469 114.867188 28.5625 116.398438 27.429688 C 117.925781 26.296875 119.480469 25.203125 121.066406 24.148438 C 122.648438 23.09375 124.253906 22.078125 125.886719 21.101562 C 127.519531 20.125 129.175781 19.1875 130.855469 18.292969 C 132.535156 17.398438 134.234375 16.542969 135.953125 15.730469 C 137.675781 14.917969 139.414062 14.148438 141.175781 13.421875 C 142.933594 12.695312 144.707031 12.011719 146.5 11.371094 C 148.292969 10.730469 150.101562 10.136719 151.921875 9.585938 C 153.742188 9.035156 155.578125 8.527344 157.421875 8.066406 C 159.269531 7.605469 161.125 7.1875 162.992188 6.816406 C 164.859375 6.445312 166.734375 6.121094 168.617188 5.84375 C 170.5 5.566406 172.390625 5.332031 174.285156 5.144531 C 176.179688 4.960938 178.078125 4.820312 179.976562 4.726562 C 181.878906 4.632812 183.78125 4.585938 185.6875 4.585938 C 187.589844 4.585938 189.492188 4.632812 191.394531 4.726562 C 193.292969 4.820312 195.191406 4.960938 197.085938 5.144531 C 198.980469 5.332031 200.871094 5.566406 202.753906 5.84375 C 204.636719 6.121094 206.511719 6.445312 208.378906 6.816406 C 210.246094 7.1875 212.101562 7.605469 213.949219 8.066406 C 215.792969 8.527344 217.628906 9.035156 219.449219 9.585938 C 221.273438 10.136719 223.078125 10.730469 224.871094 11.371094 C 226.664062 12.011719 228.4375 12.695312 230.199219 13.421875 C 231.957031 14.148438 233.695312 14.917969 235.417969 15.730469 C 237.136719 16.542969 238.835938 17.398438 240.515625 18.292969 C 242.195312 19.1875 243.851562 20.125 245.484375 21.101562 C 247.117188 22.078125 248.722656 23.09375 250.308594 24.148438 C 251.890625 25.203125 253.445312 26.296875 254.972656 27.429688 C 256.503906 28.5625 258.003906 29.730469 259.476562 30.933594 C 260.945312 32.140625 262.386719 33.378906 263.796875 34.65625 C 265.207031 35.929688 266.585938 37.242188 267.933594 38.582031 C 269.277344 39.925781 270.589844 41.300781 271.871094 42.710938 C 273.148438 44.117188 274.390625 45.554688 275.597656 47.023438 C 276.804688 48.492188 277.976562 49.988281 279.109375 51.515625 C 280.246094 53.039062 281.339844 54.59375 282.398438 56.171875 C 283.457031 57.753906 284.472656 59.355469 285.453125 60.984375 C 286.429688 62.613281 287.367188 64.265625 288.265625 65.941406 C 289.164062 67.617188 290.019531 69.3125 290.832031 71.03125 C 291.648438 72.75 292.417969 74.484375 293.148438 76.238281 C 293.875 77.996094 294.558594 79.765625 295.203125 81.554688 C 295.84375 83.34375 296.441406 85.148438 296.992188 86.964844 C 297.542969 88.78125 298.050781 90.613281 298.515625 92.457031 C 298.976562 94.296875 299.394531 96.152344 299.765625 98.015625 C 300.136719 99.878906 300.460938 101.75 300.742188 103.628906 C 301.019531 105.507812 301.253906 107.390625 301.441406 109.28125 C 301.628906 111.171875 301.765625 113.066406 301.859375 114.964844 C 301.953125 116.859375 302 118.757812 302 120.660156 Z M 302 120.660156"/></g><g clip-path="url(#d)"><g mask="url(#e)"><g><g clip-path="url(#f)" transform="translate(68 4)"><g clip-path="url(#g)"><path fill="#FFF" d="M 117.6875 0.585938 C 53.445312 0.585938 1.371094 52.558594 1.371094 116.660156 C 1.371094 180.765625 53.445312 232.730469 117.6875 232.730469 Z M 117.6875 0.585938"/></g></g></g></g></g><path fill="#7E310B" d="M 270.480469 120.664062 C 270.480469 122.046875 270.445312 123.433594 270.378906 124.816406 C 270.308594 126.199219 270.207031 127.578125 270.074219 128.957031 C 269.9375 130.335938 269.765625 131.707031 269.5625 133.078125 C 269.359375 134.449219 269.121094 135.8125 268.851562 137.171875 C 268.582031 138.527344 268.277344 139.878906 267.941406 141.222656 C 267.601562 142.566406 267.230469 143.902344 266.828125 145.226562 C 266.425781 146.550781 265.992188 147.867188 265.523438 149.167969 C 265.054688 150.472656 264.558594 151.765625 264.027344 153.042969 C 263.496094 154.324219 262.933594 155.589844 262.339844 156.839844 C 261.746094 158.09375 261.121094 159.328125 260.46875 160.550781 C 259.8125 161.773438 259.128906 162.976562 258.417969 164.164062 C 257.703125 165.351562 256.960938 166.523438 256.191406 167.671875 C 255.417969 168.824219 254.621094 169.957031 253.792969 171.070312 C 252.96875 172.179688 252.113281 173.273438 251.234375 174.34375 C 250.351562 175.414062 249.445312 176.460938 248.515625 177.488281 C 247.582031 178.515625 246.625 179.515625 245.644531 180.496094 C 244.664062 181.476562 243.660156 182.429688 242.628906 183.359375 C 241.601562 184.289062 240.550781 185.195312 239.480469 186.074219 C 238.40625 186.953125 237.3125 187.804688 236.199219 188.628906 C 235.082031 189.453125 233.949219 190.25 232.796875 191.019531 C 231.640625 191.789062 230.46875 192.53125 229.277344 193.242188 C 228.089844 193.953125 226.882812 194.636719 225.65625 195.289062 C 224.433594 195.941406 223.195312 196.5625 221.941406 197.15625 C 220.6875 197.75 219.417969 198.308594 218.136719 198.839844 C 216.851562 199.367188 215.558594 199.867188 214.253906 200.332031 C 212.945312 200.800781 211.628906 201.234375 210.300781 201.636719 C 208.972656 202.039062 207.636719 202.40625 206.289062 202.746094 C 204.941406 203.082031 203.589844 203.382812 202.226562 203.652344 C 200.867188 203.925781 199.5 204.160156 198.128906 204.363281 C 196.753906 204.566406 195.378906 204.738281 193.996094 204.871094 C 192.617188 205.007812 191.234375 205.109375 189.847656 205.179688 C 188.460938 205.246094 187.074219 205.28125 185.6875 205.28125 C 184.296875 205.28125 182.910156 205.246094 181.523438 205.179688 C 180.140625 205.109375 178.753906 205.007812 177.375 204.871094 C 175.992188 204.738281 174.617188 204.566406 173.242188 204.363281 C 171.871094 204.160156 170.503906 203.925781 169.144531 203.652344 C 167.78125 203.382812 166.429688 203.082031 165.082031 202.746094 C 163.734375 202.40625 162.398438 202.039062 161.070312 201.636719 C 159.742188 201.234375 158.425781 200.800781 157.121094 200.332031 C 155.8125 199.867188 154.519531 199.367188 153.234375 198.839844 C 151.953125 198.308594 150.6875 197.75 149.429688 197.15625 C 148.175781 196.5625 146.9375 195.941406 145.714844 195.289062 C 144.488281 194.636719 143.28125 193.953125 142.09375 193.242188 C 140.902344 192.53125 139.730469 191.789062 138.574219 191.019531 C 137.421875 190.25 136.289062 189.453125 135.171875 188.628906 C 134.058594 187.804688 132.964844 186.953125 131.890625 186.074219 C 130.820312 185.195312 129.769531 184.289062 128.742188 183.359375 C 127.710938 182.429688 126.707031 181.476562 125.726562 180.496094 C 124.746094 179.515625 123.789062 178.515625 122.855469 177.488281 C 121.925781 176.460938 121.019531 175.414062 120.136719 174.34375 C 119.257812 173.273438 118.40625 172.179688 117.578125 171.070312 C 116.75 169.957031 115.953125 168.824219 115.179688 167.671875 C 114.410156 166.523438 113.667969 165.351562 112.953125 164.164062 C 112.242188 162.976562 111.558594 161.773438 110.902344 160.550781 C 110.25 159.328125 109.625 158.09375 109.03125 156.839844 C 108.4375 155.589844 107.875 154.324219 107.34375 153.042969 C 106.8125 151.765625 106.316406 150.472656 105.847656 149.167969 C 105.378906 147.867188 104.945312 146.550781 104.542969 145.226562 C 104.140625 143.902344 103.769531 142.566406 103.433594 141.222656 C 103.09375 139.878906 102.789062 138.527344 102.519531 137.171875 C 102.25 135.8125 102.011719 134.449219 101.808594 133.078125 C 101.605469 131.707031 101.433594 130.335938 101.300781 128.957031 C 101.164062 127.578125 101.0625 126.199219 100.992188 124.816406 C 100.925781 123.433594 100.890625 122.046875 100.890625 120.664062 C 100.890625 119.277344 100.925781 117.894531 100.992188 116.511719 C 101.0625 115.128906 101.164062 113.746094 101.300781 112.367188 C 101.433594 110.992188 101.605469 109.617188 101.808594 108.246094 C 102.011719 106.878906 102.25 105.511719 102.519531 104.15625 C 102.789062 102.796875 103.09375 101.445312 103.433594 100.101562 C 103.769531 98.757812 104.140625 97.425781 104.542969 96.101562 C 104.945312 94.773438 105.378906 93.460938 105.847656 92.15625 C 106.316406 90.851562 106.8125 89.5625 107.34375 88.28125 C 107.875 87 108.4375 85.734375 109.03125 84.484375 C 109.625 83.230469 110.25 81.996094 110.902344 80.773438 C 111.558594 79.554688 112.242188 78.347656 112.953125 77.160156 C 113.667969 75.972656 114.410156 74.804688 115.179688 73.652344 C 115.953125 72.5 116.75 71.367188 117.578125 70.257812 C 118.40625 69.144531 119.257812 68.050781 120.136719 66.980469 C 121.019531 65.910156 121.925781 64.863281 122.855469 63.835938 C 123.789062 62.8125 124.746094 61.808594 125.726562 60.828125 C 126.707031 59.851562 127.710938 58.894531 128.742188 57.964844 C 129.769531 57.035156 130.820312 56.132812 131.890625 55.253906 C 132.964844 54.375 134.058594 53.523438 135.171875 52.699219 C 136.289062 51.871094 137.421875 51.074219 138.574219 50.304688 C 139.730469 49.535156 140.902344 48.796875 142.09375 48.085938 C 143.28125 47.371094 144.488281 46.691406 145.714844 46.035156 C 146.9375 45.382812 148.175781 44.761719 149.429688 44.167969 C 150.6875 43.578125 151.953125 43.015625 153.234375 42.488281 C 154.519531 41.957031 155.8125 41.457031 157.117188 40.992188 C 158.425781 40.523438 159.742188 40.089844 161.070312 39.6875 C 162.398438 39.289062 163.734375 38.917969 165.082031 38.582031 C 166.429688 38.246094 167.78125 37.941406 169.144531 37.671875 C 170.503906 37.402344 171.871094 37.164062 173.242188 36.960938 C 174.617188 36.757812 175.992188 36.589844 177.375 36.453125 C 178.753906 36.316406 180.140625 36.214844 181.523438 36.148438 C 182.910156 36.078125 184.296875 36.046875 185.6875 36.046875 C 187.074219 36.046875 188.460938 36.078125 189.847656 36.148438 C 191.234375 36.214844 192.617188 36.316406 193.996094 36.453125 C 195.378906 36.589844 196.753906 36.757812 198.128906 36.960938 C 199.5 37.164062 200.867188 37.402344 202.226562 37.671875 C 203.589844 37.941406 204.941406 38.246094 206.289062 38.582031 C 207.636719 38.917969 208.972656 39.289062 210.300781 39.6875 C 211.628906 40.089844 212.945312 40.523438 214.253906 40.992188 C 215.558594 41.457031 216.851562 41.957031 218.136719 42.488281 C 219.417969 43.015625 220.6875 43.578125 221.941406 44.167969 C 223.195312 44.761719 224.433594 45.382812 225.65625 46.035156 C 226.882812 46.691406 228.089844 47.371094 229.277344 48.085938 C 230.46875 48.796875 231.640625 49.535156 232.796875 50.304688 C 233.949219 51.074219 235.082031 51.871094 236.199219 52.699219 C 237.3125 53.523438 238.40625 54.375 239.480469 55.253906 C 240.550781 56.132812 241.601562 57.035156 242.628906 57.964844 C 243.660156 58.894531 244.664062 59.851562 245.644531 60.828125 C 246.625 61.808594 247.582031 62.8125 248.515625 63.835938 C 249.445312 64.863281 250.351562 65.910156 251.234375 66.980469 C 252.113281 68.050781 252.96875 69.144531 253.792969 70.257812 C 254.621094 71.367188 255.417969 72.5 256.191406 73.652344 C 256.960938 74.804688 257.703125 75.972656 258.417969 77.160156 C 259.128906 78.347656 259.8125 79.554688 260.46875 80.773438 C 261.121094 81.996094 261.746094 83.230469 262.339844 84.484375 C 262.933594 85.734375 263.496094 87 264.027344 88.28125 C 264.558594 89.5625 265.054688 90.851562 265.523438 92.15625 C 265.992188 93.460938 266.425781 94.773438 266.828125 96.101562 C 267.230469 97.425781 267.601562 98.757812 267.941406 100.101562 C 268.277344 101.445312 268.582031 102.796875 268.851562 104.15625 C 269.121094 105.511719 269.359375 106.878906 269.5625 108.246094 C 269.765625 109.617188 269.9375 110.992188 270.074219 112.367188 C 270.207031 113.746094 270.308594 115.128906 270.378906 116.511719 C 270.445312 117.894531 270.480469 119.277344 270.480469 120.664062 Z M 270.480469 120.664062"/><path fill="#FFF" d="M 185.34375 69.972656 C 157.414062 69.972656 134.78125 92.5625 134.78125 120.429688 C 134.78125 148.296875 157.414062 170.886719 185.34375 170.886719 C 213.269531 170.886719 235.90625 148.296875 235.90625 120.429688 C 235.90625 92.566406 213.265625 69.972656 185.34375 69.972656 Z M 224.121094 102.542969 L 209.871094 95.984375 L 203.308594 81.75 C 207.855469 83.851562 211.96875 86.722656 215.542969 90.289062 C 219.128906 93.867188 222.011719 97.984375 224.121094 102.542969 Z M 197.171875 108.625 L 200.34375 128.601562 L 182.285156 137.78125 L 167.949219 123.484375 L 177.152344 105.460938 Z M 168.71875 81.152344 C 172.417969 79.589844 176.277344 78.578125 180.242188 78.109375 L 169.589844 89.617188 L 154.019531 91.449219 C 154.386719 91.058594 154.757812 90.667969 155.136719 90.289062 C 159.0625 86.375 163.632812 83.292969 168.71875 81.152344 Z M 142.628906 120.429688 C 142.628906 117.625 142.898438 114.871094 143.429688 112.171875 L 151.105469 125.839844 L 148.042969 141.210938 C 147.28125 139.855469 146.59375 138.453125 145.984375 137.019531 C 143.753906 131.773438 142.628906 126.1875 142.628906 120.429688 Z M 168.71875 159.707031 C 167.277344 159.097656 165.878906 158.414062 164.519531 157.652344 L 179.917969 154.585938 L 193.613281 162.257812 C 190.914062 162.78125 188.148438 163.054688 185.34375 163.054688 C 179.570312 163.054688 173.976562 161.925781 168.71875 159.707031 Z M 215.542969 150.566406 C 215.164062 150.949219 214.773438 151.316406 214.382812 151.683594 L 216.214844 136.144531 L 227.753906 125.515625 C 227.28125 129.472656 226.261719 133.328125 224.703125 137.019531 C 222.550781 142.097656 219.46875 146.65625 215.542969 150.566406 Z M 215.542969 150.566406"/><g clip-path="url(#h)"><path fill="#7E310B" d="M 150.675781 221.300781 L 190.082031 267.835938 L 229.488281 221.300781 Z M 150.675781 221.300781"/></g><g clip-path="url(#i)"><path fill="#764B36" d="M 306.398438 120.660156 C 306.398438 122.558594 306.351562 124.457031 306.257812 126.355469 C 306.164062 128.25 306.023438 130.144531 305.835938 132.035156 C 305.652344 133.925781 305.417969 135.8125 305.136719 137.691406 C 304.859375 139.570312 304.535156 141.441406 304.164062 143.304688 C 303.792969 145.164062 303.375 147.019531 302.910156 148.863281 C 302.449219 150.703125 301.941406 152.535156 301.390625 154.351562 C 300.835938 156.171875 300.238281 157.972656 299.597656 159.761719 C 298.957031 161.550781 298.273438 163.320312 297.542969 165.078125 C 296.816406 166.832031 296.042969 168.566406 295.230469 170.285156 C 294.417969 172.003906 293.558594 173.699219 292.664062 175.375 C 291.765625 177.050781 290.828125 178.703125 289.847656 180.332031 C 288.871094 181.960938 287.851562 183.566406 286.792969 185.144531 C 285.738281 186.722656 284.640625 188.277344 283.507812 189.800781 C 282.375 191.328125 281.203125 192.824219 279.996094 194.292969 C 278.789062 195.761719 277.542969 197.199219 276.265625 198.605469 C 274.988281 200.015625 273.675781 201.390625 272.328125 202.734375 C 270.984375 204.078125 269.605469 205.386719 268.195312 206.660156 C 266.785156 207.9375 265.34375 209.175781 263.871094 210.382812 C 262.402344 211.585938 260.898438 212.757812 259.371094 213.886719 C 257.84375 215.019531 256.285156 216.113281 254.703125 217.167969 C 253.121094 218.222656 251.511719 219.238281 249.878906 220.214844 C 248.246094 221.191406 246.59375 222.128906 244.914062 223.023438 C 243.234375 223.917969 241.535156 224.773438 239.8125 225.585938 C 238.09375 226.398438 236.351562 227.167969 234.59375 227.894531 C 232.835938 228.621094 231.058594 229.304688 229.269531 229.945312 C 227.476562 230.585938 225.667969 231.179688 223.847656 231.730469 C 222.023438 232.28125 220.191406 232.789062 218.34375 233.25 C 216.5 233.710938 214.640625 234.128906 212.773438 234.5 C 210.90625 234.871094 209.03125 235.195312 207.148438 235.472656 C 205.265625 235.753906 203.378906 235.984375 201.484375 236.171875 C 199.589844 236.355469 197.691406 236.496094 195.789062 236.589844 C 193.886719 236.683594 191.984375 236.730469 190.082031 236.730469 C 188.179688 236.730469 186.277344 236.683594 184.375 236.589844 C 182.472656 236.496094 180.574219 236.355469 178.679688 236.171875 C 176.789062 235.984375 174.898438 235.753906 173.015625 235.472656 C 171.132812 235.195312 169.257812 234.871094 167.390625 234.5 C 165.523438 234.128906 163.667969 233.710938 161.820312 233.25 C 159.972656 232.789062 158.140625 232.28125 156.316406 231.730469 C 154.496094 231.179688 152.6875 230.585938 150.898438 229.945312 C 149.105469 229.304688 147.328125 228.621094 145.570312 227.894531 C 143.8125 227.167969 142.070312 226.398438 140.351562 225.585938 C 138.628906 224.773438 136.929688 223.917969 135.25 223.023438 C 133.574219 222.128906 131.917969 221.191406 130.285156 220.214844 C 128.652344 219.238281 127.042969 218.222656 125.460938 217.167969 C 123.878906 216.113281 122.324219 215.019531 120.792969 213.886719 C 119.265625 212.757812 117.765625 211.585938 116.292969 210.382812 C 114.820312 209.175781 113.378906 207.9375 111.96875 206.660156 C 110.558594 205.386719 109.179688 204.078125 107.835938 202.734375 C 106.488281 201.390625 105.175781 200.015625 103.898438 198.605469 C 102.621094 197.199219 101.378906 195.761719 100.167969 194.292969 C 98.960938 192.824219 97.792969 191.328125 96.65625 189.800781 C 95.523438 188.277344 94.425781 186.722656 93.371094 185.144531 C 92.3125 183.566406 91.292969 181.960938 90.316406 180.332031 C 89.335938 178.703125 88.398438 177.050781 87.5 175.375 C 86.605469 173.699219 85.75 172.003906 84.933594 170.285156 C 84.121094 168.566406 83.351562 166.832031 82.621094 165.078125 C 81.894531 163.320312 81.207031 161.550781 80.566406 159.761719 C 79.925781 157.972656 79.328125 156.171875 78.777344 154.351562 C 78.222656 152.535156 77.714844 150.703125 77.253906 148.863281 C 76.789062 147.019531 76.375 145.164062 76.003906 143.304688 C 75.632812 141.441406 75.304688 139.570312 75.027344 137.691406 C 74.746094 135.8125 74.515625 133.925781 74.328125 132.035156 C 74.140625 130.144531 74 128.25 73.90625 126.355469 C 73.8125 124.457031 73.765625 122.558594 73.765625 120.660156 C 73.765625 118.757812 73.8125 116.859375 73.90625 114.964844 C 74 113.066406 74.140625 111.171875 74.328125 109.28125 C 74.515625 107.390625 74.746094 105.507812 75.027344 103.628906 C 75.304688 101.75 75.632812 99.878906 76.003906 98.015625 C 76.375 96.152344 76.789062 94.296875 77.253906 92.457031 C 77.714844 90.613281 78.222656 88.78125 78.777344 86.964844 C 79.328125 85.148438 79.925781 83.34375 80.566406 81.554688 C 81.207031 79.765625 81.894531 77.996094 82.621094 76.238281 C 83.351562 74.484375 84.121094 72.75 84.933594 71.03125 C 85.75 69.3125 86.605469 67.617188 87.5 65.941406 C 88.398438 64.265625 89.335938 62.613281 90.316406 60.984375 C 91.292969 59.355469 92.3125 57.753906 93.371094 56.171875 C 94.425781 54.59375 95.523438 53.039062 96.65625 51.515625 C 97.792969 49.988281 98.960938 48.492188 100.167969 47.023438 C 101.378906 45.554688 102.621094 44.117188 103.898438 42.710938 C 105.175781 41.300781 106.488281 39.925781 107.835938 38.582031 C 109.179688 37.242188 110.558594 35.929688 111.96875 34.65625 C 113.378906 33.378906 114.820312 32.140625 116.292969 30.933594 C 117.765625 29.730469 119.265625 28.5625 120.792969 27.429688 C 122.324219 26.296875 123.878906 25.203125 125.460938 24.148438 C 127.042969 23.09375 128.652344 22.078125 130.285156 21.101562 C 131.917969 20.125 133.574219 19.1875 135.25 18.292969 C 136.929688 17.398438 138.628906 16.542969 140.351562 15.730469 C 142.070312 14.917969 143.8125 14.148438 145.570312 13.421875 C 147.328125 12.695312 149.105469 12.011719 150.898438 11.371094 C 152.6875 10.730469 154.496094 10.136719 156.316406 9.585938 C 158.140625 9.035156 159.972656 8.527344 161.820312 8.066406 C 163.667969 7.605469 165.523438 7.1875 167.390625 6.816406 C 169.257812 6.445312 171.132812 6.121094 173.015625 5.84375 C 174.898438 5.566406 176.789062 5.332031 178.679688 5.144531 C 180.574219 4.960938 182.472656 4.820312 184.375 4.726562 C 186.277344 4.632812 188.179688 4.585938 190.082031 4.585938 C 191.984375 4.585938 193.886719 4.632812 195.789062 4.726562 C 197.691406 4.820312 199.589844 4.960938 201.484375 5.144531 C 203.378906 5.332031 205.265625 5.566406 207.148438 5.84375 C 209.03125 6.121094 210.90625 6.445312 212.773438 6.816406 C 214.640625 7.1875 216.5 7.605469 218.34375 8.066406 C 220.191406 8.527344 222.023438 9.035156 223.847656 9.585938 C 225.667969 10.136719 227.476562 10.730469 229.269531 11.371094 C 231.058594 12.011719 232.835938 12.695312 234.59375 13.421875 C 236.351562 14.148438 238.09375 14.917969 239.8125 15.730469 C 241.535156 16.542969 243.234375 17.398438 244.914062 18.292969 C 246.59375 19.1875 248.246094 20.125 249.878906 21.101562 C 251.511719 22.078125 253.121094 23.09375 254.703125 24.148438 C 256.285156 25.203125 257.84375 26.296875 259.371094 27.429688 C 260.898438 28.5625 262.402344 29.730469 263.871094 30.933594 C 265.34375 32.140625 266.785156 33.378906 268.195312 34.65625 C 269.605469 35.929688 270.984375 37.242188 272.328125 38.582031 C 273.675781 39.925781 274.988281 41.300781 276.265625 42.710938 C 277.542969 44.117188 278.789062 45.554688 279.996094 47.023438 C 281.203125 48.492188 282.375 49.988281 283.507812 51.515625 C 284.640625 53.039062 285.738281 54.59375 286.792969 56.171875 C 287.851562 57.753906 288.871094 59.355469 289.847656 60.984375 C 290.828125 62.613281 291.765625 64.265625 292.664062 65.941406 C 293.558594 67.617188 294.417969 69.3125 295.230469 71.03125 C 296.042969 72.75 296.816406 74.484375 297.542969 76.238281 C 298.273438 77.996094 298.957031 79.765625 299.597656 81.554688 C 300.238281 83.34375 300.835938 85.148438 301.390625 86.964844 C 301.941406 88.78125 302.449219 90.613281 302.910156 92.457031 C 303.375 94.296875 303.792969 96.152344 304.164062 98.015625 C 304.535156 99.878906 304.859375 101.75 305.136719 103.628906 C 305.417969 105.507812 305.652344 107.390625 305.835938 109.28125 C 306.023438 111.171875 306.164062 113.066406 306.257812 114.964844 C 306.351562 116.859375 306.398438 118.757812 306.398438 120.660156 Z M 306.398438 120.660156"/></g><g clip-path="url(#j)"><g mask="url(#k)"><g><g clip-path="url(#l)" transform="translate(71 4)"><g clip-path="url(#m)"><path fill="#FFF" d="M 119.082031 0.585938 C 54.84375 0.585938 2.765625 52.558594 2.765625 116.660156 C 2.765625 180.765625 54.84375 232.730469 119.082031 232.730469 Z M 119.082031 0.585938"/></g></g></g></g></g><path fill="#7E310B" d="M 274.878906 120.664062 C 274.878906 122.046875 274.84375 123.433594 274.773438 124.816406 C 274.707031 126.199219 274.605469 127.578125 274.46875 128.957031 C 274.332031 130.335938 274.164062 131.707031 273.960938 133.078125 C 273.757812 134.449219 273.519531 135.8125 273.25 137.171875 C 272.976562 138.527344 272.671875 139.878906 272.335938 141.222656 C 272 142.566406 271.628906 143.902344 271.226562 145.226562 C 270.824219 146.550781 270.386719 147.867188 269.921875 149.167969 C 269.453125 150.472656 268.953125 151.765625 268.421875 153.042969 C 267.890625 154.324219 267.328125 155.589844 266.734375 156.839844 C 266.144531 158.09375 265.519531 159.328125 264.863281 160.550781 C 264.210938 161.773438 263.527344 162.976562 262.8125 164.164062 C 262.101562 165.351562 261.359375 166.523438 260.585938 167.671875 C 259.816406 168.824219 259.015625 169.957031 258.191406 171.070312 C 257.363281 172.179688 256.511719 173.273438 255.628906 174.34375 C 254.75 175.414062 253.84375 176.460938 252.910156 177.488281 C 251.980469 178.515625 251.023438 179.515625 250.042969 180.496094 C 249.058594 181.476562 248.054688 182.429688 247.027344 183.359375 C 246 184.289062 244.949219 185.195312 243.875 186.074219 C 242.804688 186.953125 241.710938 187.804688 240.59375 188.628906 C 239.480469 189.453125 238.347656 190.25 237.191406 191.019531 C 236.039062 191.789062 234.867188 192.53125 233.675781 193.242188 C 232.484375 193.953125 231.277344 194.636719 230.054688 195.289062 C 228.832031 195.941406 227.589844 196.5625 226.335938 197.15625 C 225.082031 197.75 223.8125 198.308594 222.53125 198.839844 C 221.25 199.367188 219.957031 199.867188 218.648438 200.332031 C 217.34375 200.800781 216.023438 201.234375 214.695312 201.636719 C 213.371094 202.039062 212.03125 202.40625 210.6875 202.746094 C 209.339844 203.082031 207.984375 203.382812 206.625 203.652344 C 205.265625 203.925781 203.898438 204.160156 202.523438 204.363281 C 201.152344 204.566406 199.773438 204.738281 198.394531 204.871094 C 197.011719 205.007812 195.628906 205.109375 194.242188 205.179688 C 192.855469 205.246094 191.46875 205.28125 190.082031 205.28125 C 188.695312 205.28125 187.308594 205.246094 185.921875 205.179688 C 184.535156 205.109375 183.152344 205.007812 181.769531 204.871094 C 180.390625 204.738281 179.011719 204.566406 177.640625 204.363281 C 176.269531 204.160156 174.902344 203.925781 173.539062 203.652344 C 172.179688 203.382812 170.824219 203.082031 169.480469 202.746094 C 168.132812 202.40625 166.796875 202.039062 165.46875 201.636719 C 164.140625 201.234375 162.824219 200.800781 161.515625 200.332031 C 160.210938 199.867188 158.914062 199.367188 157.632812 198.839844 C 156.351562 198.308594 155.082031 197.75 153.828125 197.15625 C 152.574219 196.5625 151.335938 195.941406 150.109375 195.289062 C 148.886719 194.636719 147.679688 193.953125 146.488281 193.242188 C 145.296875 192.53125 144.125 191.789062 142.972656 191.019531 C 141.820312 190.25 140.683594 189.453125 139.570312 188.628906 C 138.457031 187.804688 137.363281 186.953125 136.289062 186.074219 C 135.214844 185.195312 134.164062 184.289062 133.136719 183.359375 C 132.109375 182.429688 131.105469 181.476562 130.125 180.496094 C 129.140625 179.515625 128.183594 178.515625 127.253906 177.488281 C 126.320312 176.460938 125.414062 175.414062 124.535156 174.34375 C 123.65625 173.273438 122.800781 172.179688 121.972656 171.070312 C 121.148438 169.957031 120.347656 168.824219 119.578125 167.671875 C 118.808594 166.523438 118.066406 165.351562 117.351562 164.164062 C 116.636719 162.976562 115.953125 161.773438 115.300781 160.550781 C 114.644531 159.328125 114.023438 158.09375 113.429688 156.839844 C 112.835938 155.589844 112.273438 154.324219 111.742188 153.042969 C 111.210938 151.765625 110.710938 150.472656 110.246094 149.167969 C 109.777344 147.867188 109.339844 146.550781 108.9375 145.226562 C 108.535156 143.902344 108.164062 142.566406 107.828125 141.222656 C 107.492188 139.878906 107.1875 138.527344 106.917969 137.171875 C 106.644531 135.8125 106.410156 134.449219 106.207031 133.078125 C 106 131.707031 105.832031 130.335938 105.695312 128.957031 C 105.558594 127.578125 105.457031 126.199219 105.390625 124.816406 C 105.320312 123.433594 105.289062 122.046875 105.289062 120.664062 C 105.289062 119.277344 105.320312 117.894531 105.390625 116.511719 C 105.457031 115.128906 105.558594 113.746094 105.695312 112.367188 C 105.832031 110.992188 106 109.617188 106.207031 108.246094 C 106.410156 106.878906 106.644531 105.511719 106.917969 104.15625 C 107.1875 102.796875 107.492188 101.445312 107.828125 100.101562 C 108.164062 98.757812 108.535156 97.425781 108.9375 96.101562 C 109.339844 94.773438 109.777344 93.460938 110.246094 92.15625 C 110.710938 90.851562 111.210938 89.5625 111.742188 88.28125 C 112.273438 87 112.835938 85.734375 113.429688 84.484375 C 114.023438 83.230469 114.644531 81.996094 115.300781 80.773438 C 115.953125 79.554688 116.636719 78.347656 117.351562 77.160156 C 118.066406 75.972656 118.808594 74.804688 119.578125 73.652344 C 120.347656 72.5 121.148438 71.367188 121.972656 70.257812 C 122.800781 69.144531 123.65625 68.050781 124.535156 66.980469 C 125.414062 65.910156 126.320312 64.863281 127.253906 63.835938 C 128.183594 62.8125 129.140625 61.808594 130.125 60.828125 C 131.105469 59.851562 132.109375 58.894531 133.136719 57.964844 C 134.164062 57.035156 135.214844 56.132812 136.289062 55.253906 C 137.363281 54.375 138.457031 53.523438 139.570312 52.699219 C 140.683594 51.871094 141.820312 51.074219 142.972656 50.304688 C 144.125 49.535156 145.296875 48.796875 146.488281 48.085938 C 147.679688 47.371094 148.886719 46.691406 150.109375 46.035156 C 151.335938 45.382812 152.574219 44.761719 153.828125 44.167969 C 155.082031 43.578125 156.351562 43.015625 157.632812 42.488281 C 158.914062 41.957031 160.210938 41.457031 161.515625 40.992188 C 162.824219 40.523438 164.140625 40.089844 165.46875 39.6875 C 166.796875 39.289062 168.132812 38.917969 169.480469 38.582031 C 170.824219 38.246094 172.179688 37.941406 173.539062 37.671875 C 174.902344 37.402344 176.269531 37.164062 177.640625 36.960938 C 179.011719 36.757812 180.390625 36.589844 181.769531 36.453125 C 183.152344 36.316406 184.535156 36.214844 185.921875 36.148438 C 187.308594 36.078125 188.695312 36.046875 190.082031 36.046875 C 191.46875 36.046875 192.855469 36.078125 194.242188 36.148438 C 195.628906 36.214844 197.011719 36.316406 198.394531 36.453125 C 199.773438 36.589844 201.152344 36.757812 202.523438 36.960938 C 203.898438 37.164062 205.265625 37.402344 206.625 37.671875 C 207.984375 37.941406 209.339844 38.246094 210.6875 38.582031 C 212.03125 38.917969 213.371094 39.289062 214.695312 39.6875 C 216.023438 40.089844 217.34375 40.523438 218.648438 40.992188 C 219.957031 41.457031 221.25 41.957031 222.53125 42.488281 C 223.8125 43.015625 225.082031 43.578125 226.335938 44.167969 C 227.589844 44.761719 228.832031 45.382812 230.054688 46.035156 C 231.277344 46.691406 232.484375 47.371094 233.675781 48.085938 C 234.867188 48.796875 236.039062 49.535156 237.191406 50.304688 C 238.347656 51.074219 239.480469 51.871094 240.59375 52.699219 C 241.710938 53.523438 242.804688 54.375 243.875 55.253906 C 244.949219 56.132812 246 57.035156 247.027344 57.964844 C 248.054688 58.894531 249.058594 59.851562 250.042969 60.828125 C 251.023438 61.808594 251.980469 62.8125 252.910156 63.835938 C 253.84375 64.863281 254.75 65.910156 255.628906 66.980469 C 256.511719 68.050781 257.363281 69.144531 258.191406 70.257812 C 259.015625 71.367188 259.816406 72.5 260.585938 73.652344 C 261.359375 74.804688 262.101562 75.972656 262.8125 77.160156 C 263.527344 78.347656 264.210938 79.554688 264.863281 80.773438 C 265.519531 81.996094 266.144531 83.230469 266.734375 84.484375 C 267.328125 85.734375 267.890625 87 268.421875 88.28125 C 268.953125 89.5625 269.453125 90.851562 269.921875 92.15625 C 270.386719 93.460938 270.824219 94.773438 271.226562 96.101562 C 271.628906 97.425781 272 98.757812 272.335938 100.101562 C 272.671875 101.445312 272.976562 102.796875 273.25 104.15625 C 273.519531 105.511719 273.757812 106.878906 273.960938 108.246094 C 274.164062 109.617188 274.332031 110.992188 274.46875 112.367188 C 274.605469 113.746094 274.707031 115.128906 274.773438 116.511719 C 274.84375 117.894531 274.878906 119.277344 274.878906 120.664062 Z M 274.878906 120.664062"/><path fill="#FFF" d="M 149.289062 149.523438 L 169.515625 149.523438 L 169.515625 154.570312 L 149.289062 154.570312 Z M 149.289062 149.523438"/><path fill="#FFF" d="M 209.964844 149.523438 L 230.1875 149.523438 L 230.1875 154.570312 L 209.964844 154.570312 Z M 209.964844 149.523438"/><path fill="#FFF" d="M 240.300781 124.296875 C 240.300781 120.125 236.90625 116.726562 232.714844 116.726562 C 228.527344 116.726562 225.128906 120.117188 225.128906 124.296875 L 154.339844 124.296875 C 154.339844 120.125 150.949219 116.726562 146.757812 116.726562 C 142.566406 116.726562 139.171875 120.117188 139.171875 124.296875 L 139.171875 149.523438 L 240.296875 149.523438 L 240.296875 124.296875 Z M 240.300781 124.296875"/><path fill="#FFF" d="M 158.308594 119.257812 L 187.1875 119.257812 L 187.1875 88.984375 L 154.304688 88.984375 C 151.515625 88.984375 149.25 91.242188 149.25 94.03125 L 149.25 111.941406 C 153.316406 112.769531 156.679688 115.546875 158.308594 119.257812 Z M 158.308594 119.257812"/><path fill="#FFF" d="M 230.230469 111.921875 L 230.230469 94.03125 C 230.230469 91.234375 227.964844 88.984375 225.171875 88.984375 L 192.289062 88.984375 L 192.289062 119.257812 L 221.101562 119.257812 C 222.726562 115.519531 226.125 112.734375 230.230469 111.921875 Z M 230.230469 111.921875"/><g fill="#C88A36"><g><g><path d="M 28.328125 -23.453125 L 28.328125 0 L 23.625 0 L 23.625 -10.84375 C 23.625 -14.5625 23.648438 -17.238281 23.703125 -18.875 C 23.066406 -16.15625 22.335938 -13.488281 21.515625 -10.875 L 18.21875 0 L 13.125 0 L 9.765625 -10.90625 C 8.898438 -13.789062 8.195312 -16.4375 7.65625 -18.84375 C 7.695312 -17.207031 7.71875 -14.539062 7.71875 -10.84375 L 7.71875 0 L 3.03125 0 L 3.03125 -23.453125 L 10.4375 -23.453125 L 15.734375 -4.3125 L 21.046875 -23.453125 Z M 28.328125 -23.453125" transform="translate(91.288 309.387)"/></g></g></g><g fill="#C88A36"><g><g><path d="M 22.0625 -23.453125 L 22.0625 -9.546875 C 22.0625 -8.441406 22.039062 -7.523438 22 -6.796875 C 21.84375 -4.671875 20.972656 -2.925781 19.390625 -1.5625 C 17.816406 -0.207031 15.488281 0.46875 12.40625 0.46875 C 9.300781 0.46875 6.960938 -0.207031 5.390625 -1.5625 C 3.816406 -2.925781 2.945312 -4.671875 2.78125 -6.796875 C 2.738281 -7.523438 2.71875 -8.441406 2.71875 -9.546875 L 2.71875 -23.453125 L 7.375 -23.453125 L 7.375 -9.078125 C 7.375 -8.285156 7.398438 -7.71875 7.453125 -7.375 C 7.554688 -5.988281 8.019531 -4.914062 8.84375 -4.15625 C 9.675781 -3.40625 10.863281 -3.03125 12.40625 -3.03125 C 13.925781 -3.03125 15.097656 -3.40625 15.921875 -4.15625 C 16.753906 -4.914062 17.226562 -5.988281 17.34375 -7.375 C 17.382812 -7.71875 17.40625 -8.285156 17.40625 -9.078125 L 17.40625 -23.453125 Z M 22.0625 -23.453125" transform="translate(127.223 309.387)"/></g></g></g><g fill="#C88A36"><g><g><path d="M 19.953125 -3.703125 L 19.953125 0 L 3.03125 0 L 3.03125 -23.453125 L 19.625 -23.453125 L 19.625 -19.78125 L 7.71875 -19.78125 L 7.71875 -13.59375 L 18.765625 -13.59375 L 18.765625 -9.890625 L 7.71875 -9.890625 L 7.71875 -3.703125 Z M 19.953125 -3.703125" transform="translate(156.528 309.387)"/></g></g></g><g fill="#C88A36"><g><g><path d="M 16.734375 -12.640625 C 19.742188 -11.867188 21.25 -9.988281 21.25 -7 C 21.25 -4.988281 20.617188 -3.40625 19.359375 -2.25 C 18.097656 -1.09375 16.585938 -0.390625 14.828125 -0.140625 C 14.035156 -0.046875 12.945312 0 11.5625 0 L 3.03125 0 L 3.03125 -23.453125 L 11.421875 -23.453125 C 12.671875 -23.453125 13.679688 -23.410156 14.453125 -23.328125 C 16.328125 -23.097656 17.78125 -22.460938 18.8125 -21.421875 C 19.84375 -20.378906 20.359375 -19.0625 20.359375 -17.46875 C 20.359375 -15.09375 19.148438 -13.484375 16.734375 -12.640625 Z M 7.71875 -19.78125 L 7.71875 -13.84375 L 11.25 -13.84375 C 11.820312 -13.84375 12.378906 -13.875 12.921875 -13.9375 C 14.617188 -14.207031 15.46875 -15.179688 15.46875 -16.859375 C 15.46875 -18.515625 14.582031 -19.457031 12.8125 -19.6875 C 12.269531 -19.75 11.707031 -19.78125 11.125 -19.78125 Z M 13.359375 -3.734375 C 14.222656 -3.804688 14.929688 -4.125 15.484375 -4.6875 C 16.035156 -5.257812 16.3125 -6.019531 16.3125 -6.96875 C 16.3125 -8.9375 15.304688 -10.023438 13.296875 -10.234375 C 12.722656 -10.304688 12.164062 -10.34375 11.625 -10.34375 L 7.71875 -10.34375 L 7.71875 -3.703125 L 11.796875 -3.703125 C 12.546875 -3.703125 13.066406 -3.710938 13.359375 -3.734375 Z M 13.359375 -3.734375" transform="translate(182.91 309.387)"/></g></g></g><g fill="#C88A36"><g><g><path d="M 19.953125 -3.90625 L 19.953125 0 L 3.03125 0 L 3.03125 -23.453125 L 7.71875 -23.453125 L 7.71875 -3.90625 Z M 19.953125 -3.90625" transform="translate(210.685 309.387)"/></g></g></g><g fill="#C88A36"><g><g><path d="M 10.8125 -23.9375 C 13.488281 -23.9375 15.535156 -23.265625 16.953125 -21.921875 C 18.367188 -20.585938 19.210938 -18.800781 19.484375 -16.5625 L 14.6875 -16.5625 C 14.550781 -17.78125 14.140625 -18.726562 13.453125 -19.40625 C 12.773438 -20.09375 11.835938 -20.4375 10.640625 -20.4375 C 9.671875 -20.4375 8.878906 -20.195312 8.265625 -19.71875 C 7.648438 -19.238281 7.34375 -18.546875 7.34375 -17.640625 C 7.34375 -16.648438 7.707031 -15.867188 8.4375 -15.296875 C 9.175781 -14.734375 10.476562 -14.234375 12.34375 -13.796875 C 14.90625 -13.210938 16.789062 -12.316406 18 -11.109375 C 19.21875 -9.910156 19.828125 -8.359375 19.828125 -6.453125 C 19.828125 -4.328125 18.988281 -2.640625 17.3125 -1.390625 C 15.632812 -0.148438 13.582031 0.46875 11.15625 0.46875 C 8.300781 0.46875 6.019531 -0.15625 4.3125 -1.40625 C 2.613281 -2.664062 1.648438 -4.507812 1.421875 -6.9375 L 6.21875 -6.9375 C 6.46875 -5.6875 7.035156 -4.722656 7.921875 -4.046875 C 8.804688 -3.367188 9.859375 -3.03125 11.078125 -3.03125 C 12.171875 -3.03125 13.082031 -3.300781 13.8125 -3.84375 C 14.550781 -4.382812 14.921875 -5.097656 14.921875 -5.984375 C 14.921875 -6.984375 14.5625 -7.785156 13.84375 -8.390625 C 13.132812 -9.003906 11.929688 -9.515625 10.234375 -9.921875 C 7.609375 -10.554688 5.644531 -11.398438 4.34375 -12.453125 C 3.050781 -13.515625 2.40625 -15.050781 2.40625 -17.0625 C 2.40625 -19.15625 3.222656 -20.820312 4.859375 -22.0625 C 6.492188 -23.3125 8.476562 -23.9375 10.8125 -23.9375 Z M 10.8125 -23.9375" transform="translate(263.04 309.387)"/></g></g></g><g fill="#C88A36"><g><g><path d="M 14.109375 -23.328125 C 17.015625 -22.984375 19.347656 -21.867188 21.109375 -19.984375 C 22.878906 -18.109375 23.765625 -15.457031 23.765625 -12.03125 C 23.765625 -8.59375 22.859375 -5.832031 21.046875 -3.75 C 19.234375 -1.675781 16.898438 -0.472656 14.046875 -0.140625 C 13.253906 -0.046875 12.253906 0 11.046875 0 L 3.03125 0 L 3.03125 -23.453125 L 11.125 -23.453125 C 12.320312 -23.453125 13.316406 -23.410156 14.109375 -23.328125 Z M 12.984375 -3.8125 C 14.773438 -4.03125 16.191406 -4.851562 17.234375 -6.28125 C 18.273438 -7.71875 18.796875 -9.613281 18.796875 -11.96875 C 18.796875 -14.238281 18.285156 -16.03125 17.265625 -17.34375 C 16.242188 -18.65625 14.851562 -19.425781 13.09375 -19.65625 C 12.382812 -19.738281 11.546875 -19.78125 10.578125 -19.78125 L 7.71875 -19.78125 L 7.71875 -3.703125 L 10.5 -3.703125 C 11.65625 -3.703125 12.484375 -3.738281 12.984375 -3.8125 Z M 12.984375 -3.8125" transform="translate(107.917 356.637)"/></g></g></g><g fill="#C88A36"><g><g><path d="M 13.09375 -23.9375 C 16.15625 -23.9375 18.546875 -23.191406 20.265625 -21.703125 C 21.984375 -20.222656 22.96875 -18.269531 23.21875 -15.84375 L 23.25 -15.5 L 18.5625 -15.5 L 18.5 -15.84375 C 17.882812 -18.90625 16.054688 -20.4375 13.015625 -20.4375 C 11.117188 -20.4375 9.59375 -19.671875 8.4375 -18.140625 C 7.28125 -16.609375 6.703125 -14.515625 6.703125 -11.859375 C 6.703125 -9.023438 7.28125 -6.84375 8.4375 -5.3125 C 9.59375 -3.789062 11.097656 -3.03125 12.953125 -3.03125 C 14.453125 -3.03125 15.65625 -3.445312 16.5625 -4.28125 C 17.46875 -5.125 18.078125 -6.289062 18.390625 -7.78125 L 18.46875 -8.125 L 23.125 -8.125 L 23.09375 -7.78125 C 22.84375 -5.25 21.796875 -3.238281 19.953125 -1.75 C 18.117188 -0.269531 15.71875 0.46875 12.75 0.46875 C 9.4375 0.46875 6.769531 -0.613281 4.75 -2.78125 C 2.738281 -4.957031 1.734375 -7.894531 1.734375 -11.59375 C 1.734375 -15.351562 2.796875 -18.347656 4.921875 -20.578125 C 7.054688 -22.816406 9.78125 -23.9375 13.09375 -23.9375 Z M 13.09375 -23.9375" transform="translate(164.59 356.637)"/></g></g></g><g fill="#C88A36"><g><g><path d="M 13.328125 -23.9375 C 16.910156 -23.9375 19.738281 -22.832031 21.8125 -20.625 C 23.882812 -18.414062 24.921875 -15.453125 24.921875 -11.734375 C 24.921875 -8.035156 23.882812 -5.078125 21.8125 -2.859375 C 19.738281 -0.640625 16.910156 0.46875 13.328125 0.46875 C 9.742188 0.46875 6.914062 -0.640625 4.84375 -2.859375 C 2.769531 -5.078125 1.734375 -8.035156 1.734375 -11.734375 C 1.734375 -15.453125 2.765625 -18.414062 4.828125 -20.625 C 6.890625 -22.832031 9.722656 -23.9375 13.328125 -23.9375 Z M 8.40625 -5.3125 C 9.601562 -3.789062 11.242188 -3.03125 13.328125 -3.03125 C 15.410156 -3.03125 17.039062 -3.800781 18.21875 -5.34375 C 19.394531 -6.882812 19.984375 -9.015625 19.984375 -11.734375 C 19.984375 -14.472656 19.394531 -16.609375 18.21875 -18.140625 C 17.039062 -19.671875 15.410156 -20.4375 13.328125 -20.4375 C 11.222656 -20.4375 9.578125 -19.671875 8.390625 -18.140625 C 7.210938 -16.609375 6.625 -14.46875 6.625 -11.71875 C 6.625 -8.976562 7.21875 -6.84375 8.40625 -5.3125 Z M 8.40625 -5.3125" transform="translate(194.44 356.637)"/></g></g></g><g fill="#C88A36"><g><g><path d="M 7.71875 0 L 3.03125 0 L 3.03125 -23.453125 L 7.71875 -23.453125 Z M 7.71875 0" transform="translate(225.886 356.637)"/></g></g></g><g fill="#C88A36"><g><g><path d="M 23.625 0 L 17.203125 0 L 7.546875 -17.8125 C 7.660156 -15.6875 7.71875 -13.285156 7.71875 -10.609375 L 7.71875 0 L 3.03125 0 L 3.03125 -23.453125 L 9.25 -23.453125 L 19.109375 -5.296875 C 18.992188 -7.410156 18.9375 -9.875 18.9375 -12.6875 L 18.9375 -23.453125 L 23.59375 -23.453125 Z M 23.625 0" transform="translate(241.253 356.637)"/></g></g></g></svg>